<svg xmlns="http://www.w3.org/2000/svg" xmlns:xlink="http://www.w3.org/1999/xlink" version="1.1" width="1080" height="1080" viewBox="0 0 1080 1080" xml:space="preserve">
<desc>Created with Fabric.js 4.2.0</desc>
<defs>
</defs>
<g transform="matrix(1 0 0 1 540 540)" id="2de58c1e-c6b7-4bdd-8123-2c22a852a730"  >
<rect style="stroke: none; stroke-width: 1; stroke-dasharray: none; stroke-linecap: butt; stroke-dashoffset: 0; stroke-linejoin: miter; stroke-miterlimit: 4; fill: rgb(255,255,255); fill-rule: nonzero; opacity: 1;" vector-effect="non-scaling-stroke"  x="-540" y="-540" rx="0" ry="0" width="1080" height="1080" />
</g>
<g transform="matrix(1 0 0 1 540 540)" id="dca0bfe2-fe72-49a3-b613-2b628558058d"  >
</g>
<g transform="matrix(1.87 0 0 1.87 327.14 212.52)"  >
<path style="stroke: none; stroke-width: 1; stroke-dasharray: none; stroke-linecap: butt; stroke-dashoffset: 0; stroke-linejoin: miter; stroke-miterlimit: 4; fill: rgb(0,0,0); fill-rule: nonzero; opacity: 1;" vector-effect="non-scaling-stroke"  transform=" translate(-236.25, -105)" d="M 236.25 148.75 C 260.375 148.75 280 129.125 280 105 C 280 80.875 260.375 61.25 236.25 61.25 C 212.125 61.25 192.5 80.875 192.5 105 C 192.5 129.125 212.125 148.75 236.25 148.75 z M 236.25 78.75 C 250.723 78.75 262.5 90.527 262.5 105 C 262.5 119.473 250.723 131.25 236.25 131.25 C 221.777 131.25 210 119.473 210 105 C 210 90.527 221.777 78.75 236.25 78.75 z" stroke-linecap="round" />
</g>
<g transform="matrix(1.87 0 0 1.87 392.64 932.97)"  >
<path style="stroke: none; stroke-width: 1; stroke-dasharray: none; stroke-linecap: butt; stroke-dashoffset: 0; stroke-linejoin: miter; stroke-miterlimit: 4; fill: rgb(0,0,0); fill-rule: nonzero; opacity: 1;" vector-effect="non-scaling-stroke"  transform=" translate(-271.25, -490)" d="M 385 428.75 L 157.5 428.75 C 143.027 428.75 131.25 440.527 131.25 455 L 131.25 525 C 131.25 539.473 143.027 551.25 157.5 551.25 L 385 551.25 C 399.473 551.25 411.25 539.473 411.25 525 L 411.25 455 C 411.25 440.527 399.473 428.75 385 428.75 z M 393.75 525 C 393.75 529.8203 389.8281 533.75 385 533.75 L 157.5 533.75 C 152.6719 533.75 148.75 529.8203 148.75 525 L 148.75 455 C 148.75 450.1797 152.6719 446.25 157.5 446.25 L 385 446.25 C 389.8281 446.25 393.75 450.1797 393.75 455 z" stroke-linecap="round" />
</g>
<g transform="matrix(1.87 0 0 1.87 278.02 932.97)"  >
<path style="stroke: none; stroke-width: 1; stroke-dasharray: none; stroke-linecap: butt; stroke-dashoffset: 0; stroke-linejoin: miter; stroke-miterlimit: 4; fill: rgb(0,0,0); fill-rule: nonzero; opacity: 1;" vector-effect="non-scaling-stroke"  transform=" translate(-210, -490)" d="M 201.25 481.25 L 218.75 481.25 L 218.75 498.75 L 201.25 498.75 z" stroke-linecap="round" />
</g>
<g transform="matrix(1.87 0 0 1.87 212.52 932.97)"  >
<path style="stroke: none; stroke-width: 1; stroke-dasharray: none; stroke-linecap: butt; stroke-dashoffset: 0; stroke-linejoin: miter; stroke-miterlimit: 4; fill: rgb(0,0,0); fill-rule: nonzero; opacity: 1;" vector-effect="non-scaling-stroke"  transform=" translate(-175, -490)" d="M 166.25 481.25 L 183.75 481.25 L 183.75 498.75 L 166.25 498.75 z" stroke-linecap="round" />
</g>
<g transform="matrix(1.87 0 0 1.87 343.51 932.97)"  >
<path style="stroke: none; stroke-width: 1; stroke-dasharray: none; stroke-linecap: butt; stroke-dashoffset: 0; stroke-linejoin: miter; stroke-miterlimit: 4; fill: rgb(0,0,0); fill-rule: nonzero; opacity: 1;" vector-effect="non-scaling-stroke"  transform=" translate(-245, -490)" d="M 236.25 481.25 L 253.75 481.25 L 253.75 498.75 L 236.25 498.75 z" stroke-linecap="round" />
</g>
<g transform="matrix(1.87 0 0 1.87 310.77 670.99)"  >
<path style="stroke: none; stroke-width: 1; stroke-dasharray: none; stroke-linecap: butt; stroke-dashoffset: 0; stroke-linejoin: miter; stroke-miterlimit: 4; fill: rgb(0,0,0); fill-rule: nonzero; opacity: 1;" vector-effect="non-scaling-stroke"  transform=" translate(-227.5, -350)" d="M 218.75 341.25 L 236.25 341.25 L 236.25 358.75 L 218.75 358.75 z" stroke-linecap="round" />
</g>
<g transform="matrix(1.87 0 0 1.87 376.26 670.99)"  >
<path style="stroke: none; stroke-width: 1; stroke-dasharray: none; stroke-linecap: butt; stroke-dashoffset: 0; stroke-linejoin: miter; stroke-miterlimit: 4; fill: rgb(0,0,0); fill-rule: nonzero; opacity: 1;" vector-effect="non-scaling-stroke"  transform=" translate(-262.5, -350)" d="M 253.75 341.25 L 271.25 341.25 L 271.25 358.75 L 253.75 358.75 z" stroke-linecap="round" />
</g>
<g transform="matrix(1.87 0 0 1.87 441.76 670.99)"  >
<path style="stroke: none; stroke-width: 1; stroke-dasharray: none; stroke-linecap: butt; stroke-dashoffset: 0; stroke-linejoin: miter; stroke-miterlimit: 4; fill: rgb(0,0,0); fill-rule: nonzero; opacity: 1;" vector-effect="non-scaling-stroke"  transform=" translate(-297.5, -350)" d="M 288.75 341.25 L 306.25 341.25 L 306.25 358.75 L 288.75 358.75 z" stroke-linecap="round" />
</g>
<g transform="matrix(1.87 0 0 1.87 294.39 278.02)"  >
<path style="stroke: none; stroke-width: 1; stroke-dasharray: none; stroke-linecap: butt; stroke-dashoffset: 0; stroke-linejoin: miter; stroke-miterlimit: 4; fill: rgb(0,0,0); fill-rule: nonzero; opacity: 1;" vector-effect="non-scaling-stroke"  transform=" translate(-218.75, -140)" d="M 358.75 245 L 358.75 175 C 358.75 160.527 346.973 148.75 332.5 148.75 L 317.238 148.75 L 308.9411 135.117 L 308.9411 135.109187 L 332.50010000000003 129.37868699999999 L 332.50010000000003 80.62068699999998 L 308.9531 74.89018699999997 L 308.9531 74.88237399999997 L 321.5431 54.17937399999997 L 287.07809999999995 19.70237399999997 L 266.3751 32.29237399999997 L 266.367288 32.29237399999997 L 260.628988 8.749373999999968 L 211.874988 8.749373999999968 L 206.144488 32.29637399999997 L 206.136676 32.29637399999997 L 185.433676 19.706373999999972 L 150.968676 54.18337399999997 L 163.558676 74.88637399999998 L 163.558676 74.89418599999998 L 139.999676 80.62078599999998 L 139.999676 129.366786 L 163.546676 135.097286 L 163.546676 135.105099 L 155.261476 148.750099 L 104.99947599999999 148.750099 C 90.52647599999999 148.750099 78.74947599999999 160.527099 78.74947599999999 175.000099 L 78.74947599999999 245.000099 C 78.74947599999999 259.473099 90.52647599999999 271.250099 104.99947599999999 271.250099 L 332.49947599999996 271.250099 C 346.972476 271.250099 358.74947599999996 259.473099 358.74947599999996 245.00009899999998 z M 157.5 115.62 L 157.5 94.366 L 176.801 89.6668 L 178.3596 85.1434 C 179.19163 82.7293 180.1721 80.3934 181.2815 78.1278 L 183.3987 73.8231 L 173.0467 56.8231 L 188.06969999999998 41.8001 L 205.0537 52.1321 L 209.3506 50.0305 C 211.6358 48.9211 213.9717 47.928900000000006 216.3936 47.1086 L 220.917 45.550000000000004 L 225.6279 26.249000000000006 L 246.87390000000002 26.249000000000006 L 251.5809 45.550000000000004 L 256.1043 47.1086 C 258.51840000000004 47.940630000000006 260.86600000000004 48.928900000000006 263.14730000000003 50.0305 L 267.4442 52.1321 L 284.4282 41.8001 L 299.45120000000003 56.8231 L 289.09920000000005 73.83109999999999 L 291.2164000000001 78.13579999999999 C 292.3258000000001 80.4014 293.3062000000001 82.7374 294.1383000000001 85.1514 L 295.6969000000001 89.67479999999999 L 314.9979000000001 94.3779 L 314.9979000000001 115.6319 L 295.6969000000001 120.3311 L 294.1383000000001 124.8545 C 293.3062700000001 127.2686 292.3258000000001 129.6045 291.2164000000001 131.8701 L 289.09920000000005 136.1748 L 299.45120000000003 153.1748 L 284.4282 168.1978 L 267.4362 157.8538 L 263.13149999999996 159.9632 C 260.86589999999995 161.0726 258.5377 162.053 256.1237 162.8773 L 251.58069999999998 164.42419999999998 L 246.86979999999997 183.7482 L 225.62379999999996 183.7482 L 220.91679999999997 164.4282 L 216.37379999999996 162.8813 C 213.96759999999995 162.05708 211.63159999999996 161.0688 209.36599999999996 159.96720000000002 L 205.06129999999996 157.85780000000003 L 188.06929999999997 168.20180000000002 L 173.04629999999997 153.17880000000002 L 183.39829999999998 136.17880000000002 L 181.28109999999998 131.87410000000003 C 180.1717 129.60850000000002 179.19129999999998 127.27250000000002 178.3592 124.85850000000002 L 176.80059999999997 120.33510000000003 z M 96.25 245 L 96.25 175 C 96.25 170.1797 100.1719 166.25 105 166.25 L 161.387 166.25 L 185.434 190.297 L 206.137 177.695 C 206.137 177.695 206.144812 177.702813 206.144812 177.702813 L 211.871412 201.249813 L 260.625412 201.249813 L 266.355912 177.702813 C 266.355912 177.702813 266.363724 177.702813 266.363724 177.695 L 287.06672399999997 190.297 L 311.113724 166.25 L 332.500724 166.25 C 337.328824 166.25 341.250724 170.1797 341.250724 175 L 341.250724 245 C 341.250724 249.8203 337.328824 253.75 332.500724 253.75 L 105.00072399999999 253.75 C 100.17262399999998 253.75 96.25072399999999 249.8203 96.25072399999999 245 z" stroke-linecap="round" />
</g>
<g transform="matrix(1.87 0 0 1.87 179.78 409.01)"  >
<path style="stroke: none; stroke-width: 1; stroke-dasharray: none; stroke-linecap: butt; stroke-dashoffset: 0; stroke-linejoin: miter; stroke-miterlimit: 4; fill: rgb(0,0,0); fill-rule: nonzero; opacity: 1;" vector-effect="non-scaling-stroke"  transform=" translate(-157.5, -210)" d="M 148.75 201.25 L 166.25 201.25 L 166.25 218.75 L 148.75 218.75 z" stroke-linecap="round" />
</g>
<g transform="matrix(1.87 0 0 1.87 245.27 409.01)"  >
<path style="stroke: none; stroke-width: 1; stroke-dasharray: none; stroke-linecap: butt; stroke-dashoffset: 0; stroke-linejoin: miter; stroke-miterlimit: 4; fill: rgb(0,0,0); fill-rule: nonzero; opacity: 1;" vector-effect="non-scaling-stroke"  transform=" translate(-192.5, -210)" d="M 183.75 201.25 L 201.25 201.25 L 201.25 218.75 L 183.75 218.75 z" stroke-linecap="round" />
</g>
<g transform="matrix(1.87 0 0 1.87 114.28 409.01)"  >
<path style="stroke: none; stroke-width: 1; stroke-dasharray: none; stroke-linecap: butt; stroke-dashoffset: 0; stroke-linejoin: miter; stroke-miterlimit: 4; fill: rgb(0,0,0); fill-rule: nonzero; opacity: 1;" vector-effect="non-scaling-stroke"  transform=" translate(-122.5, -210)" d="M 113.75 201.25 L 131.25 201.25 L 131.25 218.75 L 113.75 218.75 z" stroke-linecap="round" />
</g>
<g transform="matrix(1.87 0 0 1.87 638.24 551.32)"  >
<path style="stroke: none; stroke-width: 1; stroke-dasharray: none; stroke-linecap: butt; stroke-dashoffset: 0; stroke-linejoin: miter; stroke-miterlimit: 4; fill: rgb(0,0,0); fill-rule: nonzero; opacity: 1;" vector-effect="non-scaling-stroke"  transform=" translate(-402.5, -286.05)" d="M 577.5 201.25 L 481.25 201.25 L 481.25 160.844 L 382.93399999999997 210 L 481.25 259.156 L 481.25 218.75 L 577.5 218.75 C 591.973 218.75 603.75 230.527 603.75 245 L 603.75 315 C 603.75 329.473 591.973 341.25 577.5 341.25 L 463.75 341.25 L 463.75 315 C 463.75 300.527 451.973 288.75 437.5 288.75 L 210 288.75 C 195.527 288.75 183.75 300.527 183.75 315 L 183.75 385 C 183.75 399.473 195.527 411.25 210 411.25 L 437.5 411.25 C 451.973 411.25 463.75 399.473 463.75 385 L 463.75 358.75 L 577.5 358.75 C 601.625 358.75 621.25 339.125 621.25 315 L 621.25 245 C 621.25 220.875 601.625 201.25 577.5 201.25 z M 463.75 230.844 L 422.06600000000003 210 L 463.75 189.156 z M 446.25 385.004 C 446.25 389.8243 442.3281 393.754 437.5 393.754 L 210 393.754 C 205.1719 393.754 201.25 389.8243 201.25 385.004 L 201.25 315.004 C 201.25 310.18370000000004 205.1719 306.254 210 306.254 L 437.5 306.254 C 442.3281 306.254 446.25 310.18370000000004 446.25 315.004 z" stroke-linecap="round" />
</g>
</svg>